<svg xmlns="http://www.w3.org/2000/svg" version="1.1" xmlns:xlink="http://www.w3.org/1999/xlink" xmlns:svgjs="http://svgjs.dev/svgjs" width="512" height="512"><svg xmlns="http://www.w3.org/2000/svg" width="512" height="512" viewBox="0 0 512 512">
  <defs>
    <linearGradient id="SvgjsLinearGradient1001" x1="0%" y1="0%" x2="100%" y2="100%">
      <stop offset="0%" style="stop-color:#6a11cb;stop-opacity:1"></stop>
      <stop offset="100%" style="stop-color:#2575fc;stop-opacity:1"></stop>
    </linearGradient>
  </defs>
  <circle cx="256" cy="256" r="256" fill="url(#grad)"></circle>
  <g transform="translate(128,128) scale(10.66)" fill="none" stroke="white" stroke-width="2" stroke-linecap="round" stroke-linejoin="round">
    <path d="M17 4c0 1.105-0.895 2-2 2s-2-0.895-2-2 0.895-2 2-2 2 0.895 2 2z" fill="white" stroke="none"></path>
    <path d="M13 7l-2 5l2 2l4 1l1-4l-2-1l-1-3"></path>
    <path d="M9 12l-2 2l-4 0l0 4l4 0l3 -3"></path>
    <path d="M7 21l2 -5"></path>
    <path d="M15 21l-2 -5"></path>
  </g>
</svg><style>@media (prefers-color-scheme: light) { :root { filter: none; } }
@media (prefers-color-scheme: dark) { :root { filter: none; } }
</style></svg>